# This file uses centimeters as units for non-parametric coordinates.

mtllib polySurface3.mtl
g default
v -0.588150 6.664572 -2.005394
v -0.449376 6.666723 -1.884510
v 0.449376 6.666723 -1.884510
v 0.588150 6.664572 -2.005395
v -0.709035 6.666723 -2.144168
v -0.503496 6.685046 -2.090048
v 0.503496 6.685046 -2.090048
v 0.709035 6.666723 -2.144169
v -0.709035 6.666723 -3.042921
v -0.503496 6.685046 -3.097040
v 0.503496 6.685046 -3.097040
v 0.709035 6.666723 -3.042921
v -0.588150 6.664572 -3.181694
v -0.449376 6.666723 -3.302579
v 0.449376 6.666723 -3.302579
v 0.588150 6.664572 -3.181694
v -0.680259 5.487112 -1.913285
v -0.519306 5.487954 -1.772127
v 0.519306 5.487954 -1.772127
v 0.680259 5.487112 -1.913285
v 0.821418 5.487954 -2.074238
v 0.821418 5.487954 -3.112851
v 0.680259 5.487112 -3.273804
v 0.519306 5.487954 -3.414962
v -0.519306 5.487954 -3.414962
v -0.680259 5.487112 -3.273803
v -0.821418 5.487954 -3.112851
v -0.821417 5.487954 -2.074238
v -0.664528 2.786388 -1.929016
v -0.507743 2.783957 -1.792433
v 0.507744 2.783957 -1.792434
v 0.664529 2.786388 -1.929016
v -0.801111 2.783957 -2.085801
v -0.535793 2.767023 -2.057751
v 0.535793 2.767023 -2.057751
v 0.801111 2.783957 -2.085801
v -0.801111 2.783957 -3.101288
v -0.535793 2.767023 -3.129337
v 0.535793 2.767023 -3.129338
v 0.801111 2.783957 -3.101287
v -0.664528 2.786388 -3.258073
v -0.507743 2.783957 -3.394655
v 0.507743 2.783957 -3.394655
v 0.664528 2.786388 -3.258073
v -0.433921 6.076324 -2.159624
v 0.433921 6.076324 -2.159624
v -0.433921 6.076324 -3.027466
v 0.433921 6.076324 -3.027466
v -0.618266 4.365615 -1.975278
v -0.472926 4.365615 -1.847469
v -0.472926 4.068651 -1.847469
v -0.618266 4.068651 -1.975278
v 0.472926 4.365615 -1.847469
v 0.472926 4.068651 -1.847469
v 0.618266 4.365615 -1.975279
v 0.618266 4.068651 -1.975279
v 0.746075 4.365615 -2.120618
v 0.746075 4.068651 -2.120618
v 0.746075 4.365615 -3.066471
v 0.746075 4.068651 -3.066471
v 0.618266 4.365615 -3.211810
v 0.618266 4.068651 -3.211810
v 0.472926 4.365615 -3.339620
v 0.472926 4.068651 -3.339620
v -0.472926 4.365615 -3.339620
v -0.472926 4.068651 -3.339620
v -0.618266 4.365615 -3.211810
v -0.618266 4.068651 -3.211810
v -0.746075 4.365615 -3.066471
v -0.746075 4.068651 -3.066471
v -0.746075 4.365615 -2.120618
v -0.746075 4.068651 -2.120618
v -0.506820 3.750285 -1.791703
v -0.663928 3.750874 -1.929616
v 0.506820 3.750285 -1.791704
v 0.663928 3.750874 -1.929616
v 0.801841 3.750285 -2.086724
v 0.801840 3.750285 -3.100364
v 0.663928 3.750874 -3.257473
v 0.506820 3.750285 -3.395385
v -0.506820 3.750285 -3.395385
v -0.663928 3.750874 -3.257472
v -0.801841 3.750285 -3.100364
v -0.801840 3.750285 -2.086725
v -0.657227 4.068651 -1.936317
v -0.501711 4.068651 -1.799471
v 0.501711 4.068651 -1.799471
v 0.657227 4.068651 -1.936317
v 0.794074 4.068651 -2.091833
v 0.794073 4.068651 -3.095256
v 0.657227 4.068651 -3.250772
v 0.501711 4.068651 -3.387618
v -0.501711 4.068651 -3.387618
v -0.657227 4.068651 -3.250771
v -0.794074 4.068651 -3.095255
v -0.794073 4.068651 -2.091833
v -0.665649 4.623093 -1.927896
v -0.507974 4.623142 -1.789167
v 0.507975 4.623141 -1.789167
v 0.665649 4.623093 -1.927896
v 0.804377 4.623142 -2.085570
v 0.804377 4.623141 -3.101519
v 0.665649 4.623093 -3.259193
v 0.507975 4.623142 -3.397922
v -0.507975 4.623141 -3.397921
v -0.665649 4.623093 -3.259193
v -0.804377 4.623142 -3.101519
v -0.804377 4.623141 -2.085570
v -0.501750 4.365615 -1.799405
v -0.657280 4.365615 -1.936264
v 0.501750 4.365615 -1.799405
v 0.657280 4.365615 -1.936265
v 0.794140 4.365615 -2.091794
v 0.794139 4.365615 -3.095295
v 0.657280 4.365615 -3.250825
v 0.501751 4.365615 -3.387684
v -0.501751 4.365615 -3.387683
v -0.657280 4.365615 -3.250824
v -0.794140 4.365615 -3.095294
v -0.794139 4.365615 -2.091794
v -0.535320 6.455252 -1.748384
v -0.700786 6.453098 -1.892758
v 0.535321 6.455252 -1.748384
v 0.700787 6.453098 -1.892758
v 0.845160 6.455252 -2.058224
v 0.845160 6.455252 -3.128865
v 0.700787 6.453098 -3.294331
v 0.535321 6.455252 -3.438704
v -0.535321 6.455252 -3.438704
v -0.700787 6.453098 -3.294331
v -0.845160 6.455252 -3.128865
v -0.845160 6.455252 -2.058223
v 0.439273 6.373572 -2.154272
v -0.439273 6.373572 -2.154272
v -0.439273 6.373572 -3.032817
v 0.439273 6.373572 -3.032817
v 0.450502 6.612769 -2.143043
v -0.450502 6.612769 -2.143043
v -0.450502 6.612769 -3.044046
v 0.450502 6.612769 -3.044046
vt 0.276643 0.280163
vt 0.288012 0.280832
vt 0.273944 0.290506
vt 0.266144 0.276192
vt 0.213586 0.002085
vt 0.291792 0.005696
vt 0.287379 0.072666
vt 0.212758 0.068286
vt 0.269860 0.259783
vt 0.281298 0.261921
vt 0.342043 0.301036
vt 0.342704 0.315372
vt 0.312127 0.142872
vt 0.382727 0.157326
vt 0.374500 0.219838
vt 0.306195 0.201058
vt 0.350648 0.308888
vt 0.360372 0.317573
vt 0.080894 0.126557
vt 0.012015 0.136734
vt 0.013894 0.132919
vt 0.079641 0.123285
vt 0.286533 0.094299
vt 0.300904 0.096366
vt 0.300604 0.099895
vt 0.285024 0.097515
vt 0.197476 0.002047
vt 0.197416 0.068419
vt 0.182191 0.116607
vt 0.196838 0.116110
vt 0.196646 0.133402
vt 0.181936 0.133697
vt 0.198054 0.283516
vt 0.208730 0.271751
vt 0.057614 0.324398
vt 0.052586 0.310522
vt 0.107196 0.283188
vt 0.122073 0.291468
vt 0.302477 0.074267
vt 0.181396 0.001953
vt 0.182105 0.068647
vt 0.186845 0.271918
vt 0.197846 0.273275
vt 0.292885 0.263796
vt 0.352382 0.286643
vt 0.411810 0.143525
vt 0.397523 0.141187
vt 0.397439 0.137267
vt 0.411124 0.139441
vt 0.128923 0.277299
vt 0.104557 0.006782
vt 0.108148 0.073312
vt 0.118613 0.281634
vt 0.292224 0.198210
vt 0.297730 0.140294
vt 0.283262 0.138213
vt 0.284647 0.121033
vt 0.299077 0.122698
vt 0.109326 0.122715
vt 0.110310 0.140208
vt 0.388462 0.224655
vt 0.364513 0.293988
vt 0.402557 0.229565
vt 0.376628 0.301989
vt 0.384028 0.138775
vt 0.382980 0.134964
vt 0.396941 0.160266
vt 0.017669 0.222546
vt 0.085515 0.204040
vt 0.101372 0.267015
vt 0.036923 0.296197
vt 0.212037 0.089920
vt 0.213282 0.093332
vt 0.099849 0.200852
vt 0.112841 0.263913
vt 0.114087 0.198076
vt 0.124232 0.260587
vt 0.110515 0.119264
vt 0.180903 0.113472
vt 0.182474 0.190762
vt 0.186342 0.254972
vt 0.208810 0.254027
vt 0.089102 0.008244
vt 0.093274 0.074902
vt 0.196474 0.190409
vt 0.197574 0.254660
vt 0.210452 0.190442
vt 0.197234 0.090261
vt 0.197140 0.093744
vt 0.278288 0.195789
vt 0.095117 0.124193
vt 0.095732 0.142175
vt 0.955875 0.079324
vt 0.943902 0.065332
vt 0.955110 0.050721
vt 0.956502 0.064995
vt 0.073769 0.009534
vt 0.078467 0.076439
vt 0.182570 0.090090
vt 0.181266 0.093459
vt 0.890335 0.014553
vt 0.904323 0.002583
vt 0.211348 0.116542
vt 0.196939 0.112700
vt 0.212721 0.113375
vt 0.875728 0.003347
vt 0.889998 0.001953
vt 0.313230 0.125231
vt 0.314734 0.122133
vt 0.211331 0.133647
vt 0.001953 0.017887
vt 0.007573 0.085699
vt 0.299368 0.119225
vt 0.081133 0.144575
vt 0.012282 0.156051
vt 0.095075 0.120610
vt 0.411363 0.163010
vt 0.907730 0.130104
vt 0.893123 0.118899
vt 0.307663 0.007551
vt 0.839556 0.068120
vt 0.827583 0.054128
vt 0.108669 0.095367
vt 0.110093 0.098670
vt 0.317502 0.075919
vt 0.315421 0.097898
vt 0.094388 0.097240
vt 0.094472 0.100836
vt 0.080301 0.098425
vt 0.079291 0.102021
vt 0.893459 0.131498
vt 0.879135 0.130868
vt 0.412592 0.022933
vt 0.426977 0.025347
vt 0.417851 0.093199
vt 0.403553 0.090392
vt 0.397932 0.020156
vt 0.389173 0.087661
vt 0.828348 0.082730
vt 0.826956 0.068456
vt 0.009918 0.108515
vt 0.012299 0.111661
vt 0.386727 0.110071
vt 0.001953 0.911224
vt 0.006534 0.792367
vt 0.013783 0.799905
vt 0.009505 0.903977
vt 0.323437 0.009294
vt 0.399970 0.112796
vt 0.121396 0.915219
vt 0.114096 0.907734
vt 0.033676 0.877461
vt 0.040456 0.824164
vt 0.093832 0.830474
vt 0.087194 0.883977
vt 0.124987 0.796125
vt 0.117521 0.803457
vt 0.413961 0.115578
vt 0.412582 0.119174
vt 0.399179 0.116498
vt 0.283531 0.117677
vt 0.385101 0.113326
vt 0.316404 0.101526
vt 0.021253 0.891615
vt 0.026181 0.811754
vt 0.101566 0.896122
vt 0.105897 0.815998
vn -0.466863 0.751050 0.466865
vn -0.058082 0.814009 0.577940
vn 0.064420 0.995842 -0.064419
vn -0.577940 0.814010 0.058082
vn -0.958749 -0.261766 -0.110811
vn -0.958749 -0.261766 0.110811
vn -0.993158 0.005986 0.116624
vn -0.993158 0.005986 -0.116624
vn -0.989931 0.076644 0.119002
vn -0.703681 0.098313 0.703682
vn 0.058082 0.814009 0.577941
vn -0.064420 0.995842 -0.064419
vn -0.116839 -0.025847 0.992815
vn 0.116840 -0.025847 0.992814
vn 0.116520 -0.023942 0.992900
vn -0.116520 -0.023942 0.992900
vn 0.466865 0.751050 0.466863
vn 0.577940 0.814010 0.058082
vn 0.978449 -0.171783 -0.114580
vn 0.978449 -0.171784 0.114579
vn 0.967790 -0.224798 0.113355
vn 0.967789 -0.224798 -0.113355
vn -0.984481 0.132339 0.115251
vn -0.694767 0.186005 0.694767
vn -0.693373 0.196135 0.693372
vn -0.967858 0.224497 0.113363
vn -0.696569 -0.171998 -0.696569
vn -0.707086 0.007643 -0.707086
vn -0.114580 -0.171783 -0.978449
vn -0.687090 -0.236251 -0.687090
vn -0.706815 -0.028723 -0.706815
vn -0.116840 -0.025847 -0.992814
vn 0.064420 0.995842 0.064419
vn -0.577940 0.814010 -0.058082
vn 0.577940 0.814010 -0.058082
vn -0.064420 0.995842 0.064419
vn -0.707086 0.007643 0.707086
vn -0.110811 -0.261766 -0.958749
vn -0.116624 0.005986 -0.993158
vn -0.058082 0.814009 -0.577941
vn -0.466863 0.751050 -0.466864
vn -0.119002 0.076644 0.989932
vn 0.119002 0.076644 0.989931
vn 0.687089 -0.236251 0.687091
vn 0.693334 -0.196402 0.693335
vn 0.058082 0.814009 -0.577941
vn 0.110811 -0.261766 -0.958749
vn 0.116624 0.005986 -0.993158
vn 0.466863 0.751050 -0.466865
vn -0.706851 -0.026915 0.706851
vn -0.706815 -0.028723 0.706815
vn -0.992814 -0.025847 0.116840
vn -0.978449 -0.171784 0.114580
vn -0.687090 -0.236251 0.687090
vn 0.114579 -0.171784 -0.978449
vn 0.116839 -0.025847 -0.992815
vn 0.706851 -0.026915 0.706850
vn 0.703682 0.098313 0.703681
vn 0.992900 -0.023942 0.116520
vn 0.989932 0.076644 0.119002
vn 0.114580 -0.171784 0.978449
vn 0.113356 -0.224798 0.967789
vn 0.706815 -0.028723 0.706815
vn 0.992900 -0.023942 -0.116520
vn 0.989932 0.076644 -0.119002
vn -0.984482 0.132340 -0.115250
vn -0.967858 0.224497 -0.113363
vn 0.706851 -0.026915 -0.706851
vn 0.703681 0.098313 -0.703682
vn 0.116519 -0.023942 -0.992900
vn 0.119002 0.076644 -0.989932
vn 0.113356 -0.224798 -0.967790
vn -0.113355 -0.224798 -0.967790
vn -0.116520 -0.023942 -0.992900
vn -0.119002 0.076644 -0.989932
vn -0.989932 0.076644 -0.119001
vn 0.696570 -0.171998 -0.696569
vn 0.707087 0.007642 -0.707086
vn -0.706851 -0.026915 -0.706851
vn -0.703681 0.098313 -0.703681
vn -0.992900 -0.023942 -0.116519
vn -0.694767 0.186005 -0.694767
vn -0.693373 0.196136 -0.693372
vn -0.992900 -0.023942 0.116520
vn 0.687090 -0.236252 -0.687090
vn 0.706815 -0.028723 -0.706815
vn -0.011535 -0.999867 0.011535
vn -0.110811 -0.261766 0.958749
vn -0.696569 -0.171997 0.696569
vn 0.958749 -0.261766 -0.110811
vn 0.993158 0.005986 -0.116624
vn -0.115251 0.132338 -0.984482
vn -0.113364 0.224497 -0.967858
vn 0.011535 -0.999867 0.011535
vn 0.110811 -0.261766 0.958749
vn -0.978449 -0.171785 -0.114579
vn -0.693335 -0.196403 -0.693335
vn -0.967790 -0.224798 -0.113355
vn 0.958749 -0.261766 0.110811
vn 0.696568 -0.171998 0.696570
vn -0.114580 -0.171784 0.978449
vn -0.113355 -0.224798 0.967789
vn -0.992815 -0.025847 -0.116839
vn 0.993158 0.005986 0.116624
vn -0.693335 -0.196402 0.693334
vn 0.992815 -0.025847 -0.116839
vn 0.992815 -0.025847 0.116839
vn 0.693335 -0.196403 -0.693334
vn -0.011535 -0.999867 -0.011535
vn 0.011535 -0.999867 -0.011535
vn 0.115250 0.132338 -0.984482
vn 0.113364 0.224497 -0.967858
vn -0.116624 0.005986 0.993158
vn -0.115250 0.132339 0.984481
vn 0.694767 0.186005 -0.694767
vn 0.693372 0.196136 -0.693372
vn 0.984481 0.132339 -0.115251
vn 0.967858 0.224497 -0.113364
vn 0.707085 0.007643 0.707087
vn 0.116624 0.005986 0.993158
vn 0.984482 0.132339 0.115250
vn 0.967858 0.224497 0.113363
vn 0.115251 0.132339 0.984481
vn -0.663940 0.344043 -0.663941
vn 0.663940 0.344044 -0.663941
vn 0.694766 0.186005 0.694768
vn 0.663940 0.344044 0.663941
vn 0.309521 0.899107 -0.309522
vn -0.309521 0.899107 -0.309522
vn -0.309521 0.899107 0.309521
vn 0.309521 0.899107 0.309521
vn -0.663940 0.344043 0.663941
vn 0.693372 0.196136 0.693373
vn -0.967790 -0.224798 0.113355
vn 0.113364 0.224497 0.967858
vn -0.113363 0.224497 0.967858
vn 0.706413 0.044275 -0.706413
vn -0.706413 0.044274 -0.706413
vn 0.706414 0.044274 0.706413
vn -0.706413 0.044273 0.706413
s 1
g polySurface3_export qizi:polySurface1
usemtl qizi:texturedFacets2
f 1/1/1 2/2/2 6/3/3 5/4/4
f 37/5/5 33/6/6 84/7/7 83/8/8
f 132/9/9 122/10/10 1/1/1 5/4/4
f 2/2/2 3/11/11 7/12/12 6/3/3
f 98/13/13 99/14/14 19/15/15 18/16/16
f 3/11/11 4/17/17 8/18/18 7/12/12
f 114/19/19 113/20/20 57/21/21 59/22/22
f 96/23/23 85/24/24 52/25/25 72/26/26
f 41/27/27 37/5/5 83/8/8 82/28/28
f 117/29/29 118/30/30 106/31/31 105/32/32
f 5/4/4 6/3/3 10/33/33 9/34/34
f 7/35/12 8/36/18 12/37/35 11/38/36
f 85/24/24 96/23/23 84/7/7 74/39/37
f 42/40/38 41/27/27 82/28/28 81/41/39
f 9/34/34 10/33/33 14/42/40 13/43/41
f 121/44/42 123/45/43 3/11/11 2/2/2
f 113/46/20 112/47/44 55/48/45 57/49/21
f 10/33/33 11/38/36 15/50/46 14/42/40
f 43/51/47 42/40/38 81/41/39 80/52/48
f 11/38/36 12/37/35 16/53/49 15/50/46
f 17/54/50 18/16/16 121/44/42 122/10/10
f 97/55/51 108/56/52 120/57/53 110/58/54
f 116/59/55 117/29/29 105/32/32 104/60/56
f 18/16/16 19/15/15 123/45/43 121/44/42
f 97/55/51 98/13/13 18/16/16 17/54/50
f 19/15/15 20/61/57 124/62/58 123/45/43
f 20/61/57 21/63/59 125/64/60 124/62/58
f 112/47/44 111/65/61 53/66/62 55/48/45
f 99/14/14 100/67/63 20/61/57 19/15/15
f 21/68/59 22/69/64 126/70/65 125/71/60
f 95/72/66 96/23/23 72/26/26 70/73/67
f 22/69/64 23/74/68 127/75/69 126/70/65
f 23/74/68 24/76/70 128/77/71 127/75/69
f 117/29/29 116/59/55 63/78/72 65/79/73
f 24/76/70 25/80/74 129/81/75 128/77/71
f 131/82/76 132/9/9 5/4/4 9/34/34
f 44/83/77 43/51/47 80/52/48 79/84/78
f 25/80/74 26/85/79 130/86/80 129/81/75
f 26/85/79 27/87/81 131/82/76 130/86/80
f 94/88/82 95/72/66 70/73/67 68/89/83
f 27/87/81 28/90/84 132/9/9 131/82/76
f 115/91/85 116/59/55 104/60/56 103/92/86
f 83/8/8 84/7/7 96/23/23 95/72/66
f 28/90/84 17/54/50 122/10/10 132/9/9
f 33/93/6 34/94/87 30/95/88 29/96/89
f 40/97/90 44/83/77 79/84/78 78/98/91
f 93/99/92 94/88/82 68/89/83 66/100/93
f 34/94/87 35/101/94 31/102/95 30/95/88
f 119/103/96 118/30/30 67/104/97 69/105/98
f 35/101/94 36/106/99 32/107/100 31/102/95
f 111/65/61 109/108/101 50/109/102 53/66/62
f 119/103/96 120/57/53 108/56/52 107/110/103
f 130/86/80 131/82/76 9/34/34 13/43/41
f 36/111/99 40/97/90 78/98/91 77/112/104
f 109/108/101 110/58/54 49/113/105 50/109/102
f 108/56/52 97/55/51 17/54/50 28/90/84
f 114/19/19 115/91/85 103/92/86 102/114/106
f 122/10/10 121/44/42 2/2/2 1/1/1
f 129/81/75 130/86/80 13/43/41 14/42/40
f 113/20/20 114/19/19 102/114/106 101/115/107
f 115/91/85 114/19/19 59/22/22 61/116/108
f 112/47/44 113/46/20 101/117/107 100/67/63
f 37/118/5 38/119/109 34/94/87 33/93/6
f 33/6/6 29/120/89 74/39/37 84/7/7
f 102/114/106 103/92/86 23/74/68 22/69/64
f 38/119/109 39/121/110 35/101/94 34/94/87
f 82/28/28 83/8/8 95/72/66 94/88/82
f 39/121/110 40/122/90 36/106/99 35/101/94
f 92/123/111 93/99/92 66/100/93 64/124/112
f 74/39/37 73/125/113 86/126/114 85/24/24
f 128/77/71 129/81/75 14/42/40 15/50/46
f 91/127/115 92/123/111 64/124/112 62/128/116
f 81/41/39 82/28/28 94/88/82 93/99/92
f 90/129/117 91/127/115 62/128/116 60/130/118
f 41/131/27 42/132/38 38/119/109 37/118/5
f 32/133/100 36/134/99 77/135/104 76/136/119
f 31/137/95 32/133/100 76/136/119 75/138/120
f 42/132/38 43/139/47 39/121/110 38/119/109
f 98/13/13 97/55/51 110/58/54 109/108/101
f 43/139/47 44/140/77 40/122/90 39/121/110
f 107/110/103 108/56/52 28/90/84 27/87/81
f 89/141/121 90/129/117 60/130/118 58/142/122
f 73/125/113 75/138/120 87/143/123 86/126/114
f 127/75/69 128/77/71 15/50/46 16/53/49
f 126/70/65 127/75/69 16/53/49 12/37/35
f 106/31/31 107/110/103 27/87/81 26/85/79
f 6/144/3 7/145/12 137/146/124 138/147/125
f 105/32/32 106/31/31 26/85/79 25/80/74
f 30/148/88 31/137/95 75/138/120 73/125/113
f 80/52/48 81/41/39 93/99/92 92/123/111
f 111/65/61 112/47/44 100/67/63 99/14/14
f 79/84/78 80/52/48 92/123/111 91/127/115
f 118/30/30 117/29/29 65/79/73 67/104/97
f 109/108/101 111/65/61 99/14/14 98/13/13
f 118/30/30 119/103/96 107/110/103 106/31/31
f 75/138/120 76/136/119 88/149/126 87/143/123
f 29/120/89 30/148/88 73/125/113 74/39/37
f 10/150/33 6/144/3 138/147/125 139/151/127
f 125/71/60 126/70/65 12/37/35 8/36/18
f 45/152/128 46/153/129 48/154/130 47/155/131
f 78/98/91 79/84/78 91/127/115 90/129/117
f 7/145/12 11/156/36 140/157/132 137/146/124
f 101/115/107 102/114/106 22/69/64 21/68/59
f 88/149/126 89/158/121 58/159/122 56/160/133
f 72/26/26 52/25/25 49/113/105 71/161/134
f 110/58/54 120/57/53 71/161/134 49/113/105
f 116/59/55 115/91/85 61/116/108 63/78/72
f 87/143/123 88/149/126 56/160/133 54/162/135
f 11/156/36 10/150/33 139/151/127 140/157/132
f 103/92/86 104/60/56 24/76/70 23/74/68
f 77/112/104 78/98/91 90/129/117 89/141/121
f 86/126/114 87/143/123 54/162/135 51/163/136
f 52/25/25 51/163/136 50/109/102 49/113/105
f 120/57/53 119/103/96 69/105/98 71/161/134
f 124/62/58 125/64/60 8/18/18 4/17/17
f 51/163/136 54/162/135 53/66/62 50/109/102
f 70/73/67 72/26/26 71/161/134 69/105/98
f 54/162/135 56/160/133 55/48/45 53/66/62
f 56/160/133 58/159/122 57/49/21 55/48/45
f 104/60/56 105/32/32 25/80/74 24/76/70
f 100/67/63 101/117/107 21/63/59 20/61/57
f 58/142/122 60/130/118 59/22/22 57/21/21
f 85/24/24 86/126/114 51/163/136 52/25/25
f 60/130/118 62/128/116 61/116/108 59/22/22
f 62/128/116 64/124/112 63/78/72 61/116/108
f 76/136/119 77/135/104 89/158/121 88/149/126
f 64/124/112 66/100/93 65/79/73 63/78/72
f 123/45/43 124/62/58 4/17/17 3/11/11
f 68/89/83 70/73/67 69/105/98 67/104/97
f 66/100/93 68/89/83 67/104/97 65/79/73
f 134/164/137 133/165/138 46/153/129 45/152/128
f 135/166/139 134/164/137 45/152/128 47/155/131
f 133/165/138 136/167/140 48/154/130 46/153/129
f 136/167/140 135/166/139 47/155/131 48/154/130
f 138/147/125 137/146/124 133/165/138 134/164/137
f 139/151/127 138/147/125 134/164/137 135/166/139
f 137/146/124 140/157/132 136/167/140 133/165/138
f 140/157/132 139/151/127 135/166/139 136/167/140
